<svg xmlns="http://www.w3.org/2000/svg" viewBox="267 259 1235 316" role="img" aria-label="track logo">
  <title>track logo</title>
  <path d="M 647 372 L 631 369 L 611 369 L 610 370 L 600 371 L 591 374 L 580 380 L 562 398 L 561 397 L 561 373 L 530 373 L 530 543 L 561 543 L 561 451 L 566 430 L 573 418 L 580 410 L 588 404 L 594 401 L 608 397 L 627 397 L 640 400 L 643 402 L 645 400 L 650 387 L 656 376 Z M 1066 369 L 1045 376 L 1031 384 L 1014 400 L 1005 413 L 997 433 L 994 449 L 994 464 L 995 465 L 995 473 L 1001 493 L 1012 512 L 1022 523 L 1039 535 L 1059 543 L 1068 545 L 1075 545 L 1076 546 L 1100 546 L 1101 545 L 1117 543 L 1137 535 L 1150 526 L 1162 513 L 1139 495 L 1121 510 L 1104 517 L 1078 518 L 1069 516 L 1057 511 L 1047 504 L 1040 497 L 1032 485 L 1028 474 L 1027 464 L 1026 463 L 1026 450 L 1028 440 L 1032 429 L 1037 421 L 1050 408 L 1056 404 L 1070 398 L 1078 396 L 1098 396 L 1107 398 L 1120 403 L 1130 410 L 1138 418 L 1159 402 L 1161 399 L 1149 387 L 1139 380 L 1118 371 L 1104 368 L 1096 368 L 1095 367 L 1082 367 L 1081 368 Z M 737 400 L 730 410 L 724 422 L 720 434 L 718 444 L 718 469 L 719 470 L 720 480 L 724 492 L 729 502 L 738 515 L 749 526 L 766 537 L 782 543 L 798 546 L 821 546 L 822 545 L 833 544 L 845 540 L 857 534 L 875 520 L 876 521 L 876 543 L 907 543 L 907 373 L 876 373 L 876 393 L 874 394 L 860 382 L 837 371 L 824 368 L 816 368 L 815 367 L 793 368 L 772 374 L 760 380 L 750 387 Z M 796 397 L 821 396 L 841 402 L 849 407 L 861 418 L 869 430 L 872 437 L 875 450 L 875 463 L 872 477 L 869 484 L 861 496 L 854 503 L 841 512 L 831 516 L 823 518 L 801 518 L 787 514 L 773 506 L 760 493 L 751 475 L 749 465 L 749 448 L 751 439 L 756 427 L 764 416 L 774 407 L 787 400 Z M 334 319 L 334 372 L 333 373 L 296 373 L 295 378 L 296 393 L 295 397 L 296 401 L 333 401 L 334 402 L 334 497 L 338 514 L 343 524 L 350 532 L 360 539 L 370 543 L 385 546 L 407 546 L 427 542 L 428 541 L 428 512 L 413 517 L 393 518 L 382 515 L 377 512 L 371 506 L 368 501 L 365 488 L 365 402 L 366 401 L 428 401 L 428 373 L 366 373 L 365 372 L 365 319 Z M 1251 287 L 1251 542 L 1250 543 L 1282 543 L 1282 515 L 1319 480 L 1339 499 L 1380 543 L 1423 543 L 1341 456 L 1336 459 L 1329 459 L 1321 453 L 1319 448 L 1319 444 L 1321 440 L 1284 473 L 1282 472 L 1282 287 Z" fill="#151B24" fill-rule="evenodd"/>
  <path d="M 1473 366 L 1470 363 L 1401 363 L 1398 364 L 1394 367 L 1389 374 L 1342 424 L 1339 429 L 1326 435 L 1322 439 L 1320 444 L 1320 448 L 1322 453 L 1329 458 L 1339 457 L 1364 432 L 1414 432 L 1418 430 L 1472 371 Z" fill="#1557FF" fill-rule="evenodd"/>
</svg>
