<?xml version="1.0" encoding="UTF-8"?>
<svg xmlns="http://www.w3.org/2000/svg" width="800" height="480" viewBox="0 0 800 480" font-family="sans-serif">
<rect width="100%" height="100%" fill="#ffffff"/>
<text x="400" y="24" font-size="16" font-weight="bold" text-anchor="middle">OHLC+MA</text>
<rect x="56" y="40" width="728" height="384" fill="none" stroke="#cccccc"/>
<line x1="56" y1="424.00" x2="784" y2="424.00" stroke="#eeeeee"/>
<text x="50" y="424.00" font-size="11" text-anchor="end" dominant-baseline="middle" fill="#666666">8.00</text>
<line x1="56" y1="232.00" x2="784" y2="232.00" stroke="#eeeeee"/>
<text x="50" y="232.00" font-size="11" text-anchor="end" dominant-baseline="middle" fill="#666666">11.00</text>
<line x1="56" y1="40.00" x2="784" y2="40.00" stroke="#eeeeee"/>
<text x="50" y="40.00" font-size="11" text-anchor="end" dominant-baseline="middle" fill="#666666">14.00</text>
<text x="177.33" y="440" font-size="11" text-anchor="middle" fill="#333333">a</text>
<text x="420.00" y="440" font-size="11" text-anchor="middle" fill="#333333">b</text>
<text x="662.67" y="440" font-size="11" text-anchor="middle" fill="#333333">c</text>
<line x1="177.33" y1="40.00" x2="177.33" y2="360.00" stroke="#59a14f" stroke-width="1"/>
<rect x="104.53" y="104.00" width="145.60" height="192.00" fill="#59a14f"/>
<line x1="420.00" y1="104.00" x2="420.00" y2="424.00" stroke="#e15759" stroke-width="1"/>
<rect x="347.20" y="104.00" width="145.60" height="256.00" fill="#e15759"/>
<line x1="662.67" y1="168.00" x2="662.67" y2="296.00" stroke="#59a14f" stroke-width="1"/>
<rect x="589.87" y="232.00" width="145.60" height="1.00" fill="#59a14f"/>
<polyline points="420.00,232.00 662.67,296.00" fill="none" stroke="#f28e2b" stroke-width="2"/>
<rect x="766" y="45" width="10" height="10" fill="#f28e2b"/>
<text x="762" y="54" font-size="11" text-anchor="end" fill="#333333">MA2</text>
</svg>
