<?xml version="1.0" encoding="UTF-8"?>
<svg xmlns="http://www.w3.org/2000/svg" width="800" height="480" viewBox="0 0 800 480" font-family="sans-serif">
<rect width="100%" height="100%" fill="#ffffff"/>
<text x="400" y="24" font-size="16" font-weight="bold" text-anchor="middle">Heat</text>
<rect x="110" y="40" width="618" height="384" fill="none" stroke="#cccccc"/>
<text x="264.50" y="440" font-size="11" text-anchor="middle" fill="#333333">Q1</text>
<text x="573.50" y="440" font-size="11" text-anchor="middle" fill="#333333">Q2</text>
<text x="104" y="136.00" font-size="11" text-anchor="end" dominant-baseline="middle" fill="#333333">Tech</text>
<text x="104" y="328.00" font-size="11" text-anchor="end" dominant-baseline="middle" fill="#333333">Energy</text>
<rect x="110.00" y="40.00" width="309.00" height="192.00" fill="#f7fbff" stroke="#ffffff"/>
<rect x="419.00" y="40.00" width="309.00" height="192.00" fill="#08306b" stroke="#ffffff"/>
<rect x="110.00" y="232.00" width="309.00" height="192.00" fill="#eeeeee" stroke="#ffffff"/>
<rect x="740.00" y="40.00" width="12" height="38.90" fill="#08306b"/>
<rect x="740.00" y="78.40" width="12" height="38.90" fill="#23477b"/>
<rect x="740.00" y="116.80" width="12" height="38.90" fill="#3d5d8c"/>
<rect x="740.00" y="155.20" width="12" height="38.90" fill="#58749c"/>
<rect x="740.00" y="193.60" width="12" height="38.90" fill="#728aad"/>
<rect x="740.00" y="232.00" width="12" height="38.90" fill="#8da1bd"/>
<rect x="740.00" y="270.40" width="12" height="38.90" fill="#a7b7ce"/>
<rect x="740.00" y="308.80" width="12" height="38.90" fill="#c2cede"/>
<rect x="740.00" y="347.20" width="12" height="38.90" fill="#dce4ef"/>
<rect x="740.00" y="385.60" width="12" height="38.90" fill="#f7fbff"/>
<text x="754.00" y="48" font-size="10" fill="#666666">9.00</text>
<text x="754.00" y="424" font-size="10" fill="#666666">1.00</text>
</svg>
